<?xml version="1.0" encoding="utf-8"?>
<!-- Generator: Adobe Illustrator 17.0.0, SVG Export Plug-In . SVG Version: 6.00 Build 0)  -->
<!DOCTYPE svg PUBLIC "-//W3C//DTD SVG 1.1//EN" "http://www.w3.org/Graphics/SVG/1.1/DTD/svg11.dtd">
<svg version="1.1" id="Layer_1" xmlns="http://www.w3.org/2000/svg" xmlns:xlink="http://www.w3.org/1999/xlink" x="0px" y="0px"
	 width="158px" height="64px" viewBox="0 0 158 64" enable-background="new 0 0 158 64" xml:space="preserve">
<path fill="#FFFFFF" stroke="#000000" stroke-miterlimit="10" d="M8.28,21.075"/>
<linearGradient id="SVGID_1_" gradientUnits="userSpaceOnUse" x1="-57.8176" y1="-476.6885" x2="-32.0127" y2="-476.6885" gradientTransform="matrix(1 0 0 -1 58.48 -449.98)">
	<stop  offset="0.0056" style="stop-color:#0075AA"/>
	<stop  offset="0.215" style="stop-color:#0075AA"/>
	<stop  offset="0.4101" style="stop-color:#F4E8D9"/>
	<stop  offset="0.6059" style="stop-color:#D06AFF"/>
	<stop  offset="0.8863" style="stop-color:#6A88FF"/>
	<stop  offset="0.9494" style="stop-color:#5573FF"/>
</linearGradient>
<path fill="url(#SVGID_1_)" d="M13.651,30.185C6.768,28.819,0.945,24.497,0.945,17.479c0-7.017,5.688-12.706,12.706-12.706
	c6.868,0,12.826,2.82,12.815,11.88c0,0,0.184,3.721-3.138,3.718c-3.126-0.003-3.05-3.699-3.05-3.699
	c-0.136-3.152-3.107-5.837-6.627-5.837c-3.669,0-6.794,3.002-6.346,6.643c0.513,4.177,2.826,4.719,6.346,5.753 M13.651,30.253
	c3.102,0.575,5.712,2.032,6.05,5.685c0.352,3.813-2.381,6.643-6.05,6.643c-3.485,0-6.618-1.628-6.619-7.305
	c0-0.649-0.031-3.811-3.044-3.811c-2.968,0-3.334,2.798-3.325,3.83c0.081,9.455,5.857,13.348,12.691,13.348
	c7.017,0,12.706-5.688,12.706-12.706c0-7.017-5.302-11.062-12.409-12.706"/>
<radialGradient id="SVGID_2_" cx="-44.2227" cy="-468.1111" r="9.6931" gradientTransform="matrix(-0.7071 -0.7071 -0.5657 0.5657 -281.8165 251.6646)" gradientUnits="userSpaceOnUse">
	<stop  offset="0.0056" style="stop-color:#0075AA"/>
	<stop  offset="0.1755" style="stop-color:#0075AA"/>
	<stop  offset="0.5234" style="stop-color:#F4E8D9"/>
	<stop  offset="0.8863" style="stop-color:#6A88FF"/>
	<stop  offset="0.9494" style="stop-color:#5573FF"/>
</radialGradient>
<path fill="url(#SVGID_2_)" d="M19.845,14.72c0,0-3.349-3.372-7.43-1.146c-3.263,1.78-2.885,6.655,1.928,9.146
	s5.244,2.512,6.564,3.548c1.32,1.036,2.42,2.142,2.42,2.142s-4.288-2.575-8.292-3.614s-6.921-1.508-8.8-5.586
	c-2.39-5.188-0.277-8.408,2.175-10.159c3.114-2.225,5.897-0.913,7.663,0.42C18.496,11.3,19.845,14.72,19.845,14.72z"/>
<radialGradient id="SVGID_3_" cx="608.7393" cy="735.0409" r="9.1456" gradientTransform="matrix(-1 0 0 1 622.0228 -699.9638)" gradientUnits="userSpaceOnUse">
	<stop  offset="0.0056" style="stop-color:#0075AA"/>
	<stop  offset="0.1755" style="stop-color:#0075AA"/>
	<stop  offset="0.5234" style="stop-color:#F4E8D9"/>
	<stop  offset="0.8863" style="stop-color:#6A88FF"/>
	<stop  offset="0.9494" style="stop-color:#5573FF"/>
</radialGradient>
<path fill="url(#SVGID_3_)" d="M7.51,38.465c0,0,3.756,4.242,7.836,2.016c3.263-1.78,2.885-6.655-1.928-9.146
	s-5.244-2.512-6.564-3.548c-1.32-1.036-2.42-2.142-2.42-2.142s4.288,2.575,8.292,3.614c4.004,1.038,7.266,1.366,8.8,5.586
	c1.469,4.04,0.115,6.689-2.337,8.44c-3.114,2.225-6.984,0.988-8.75-0.346C8.015,41.11,7.51,38.465,7.51,38.465z"/>
<radialGradient id="SVGID_4_" cx="-273.9644" cy="-391.5298" r="4.5289" gradientTransform="matrix(0.866 -0.5 -0.4268 -0.7393 93.6997 -411.8695)" gradientUnits="userSpaceOnUse">
	<stop  offset="0.0056" style="stop-color:#0075AA"/>
	<stop  offset="0.1755" style="stop-color:#0075AA"/>
	<stop  offset="0.5234" style="stop-color:#F4E8D9"/>
	<stop  offset="0.8863" style="stop-color:#6A88FF"/>
	<stop  offset="0.9494" style="stop-color:#5573FF"/>
</radialGradient>
<path fill="url(#SVGID_4_)" d="M24.158,8.828c0,0,1.607,3.286,1.205,4.733c-0.402,1.446-2.651,1.579-3.857,2.572
	c-1.206,0.993-0.947,3.086,0.15,3.752c1.096,0.667,3.134,0.605,4.204-0.811c1.071-1.415,0.379-6.24-0.208-7.55
	S24.34,9.051,24.158,8.828z"/>
<radialGradient id="SVGID_5_" cx="-123.9465" cy="568.4217" r="4.5289" gradientTransform="matrix(-1 0 0 1.0782 -120.3568 -575.2139)" gradientUnits="userSpaceOnUse">
	<stop  offset="0.0056" style="stop-color:#0075AA"/>
	<stop  offset="0.1755" style="stop-color:#0075AA"/>
	<stop  offset="0.5234" style="stop-color:#F4E8D9"/>
	<stop  offset="0.8863" style="stop-color:#6A88FF"/>
	<stop  offset="0.9494" style="stop-color:#5573FF"/>
</radialGradient>
<path fill="url(#SVGID_5_)" d="M2.997,43.84c0,0-1.607-3.543-1.205-5.103c0.402-1.559,2.651-1.702,3.857-2.772
	c1.206-1.071,0.947-3.327-0.15-4.046s-3.134-0.652-4.204,0.874c-1.071,1.526-0.379,6.728,0.208,8.141
	C2.09,42.347,2.816,43.6,2.997,43.84z"/>
<path fill="#FFFFFF" stroke="#FFFFFF" stroke-miterlimit="10" d="M36.419,15.127c0.034,1.014-0.71,1.825-1.892,1.825
	c-1.048,0-1.791-0.811-1.791-1.825c0-1.048,0.777-1.858,1.858-1.858C35.709,13.268,36.419,14.079,36.419,15.127z M33.107,36.076
	c0.009-0.378,0-16.354,0-16.354s0.08-1.225,1.47-1.225s1.503,1.225,1.503,1.225s-0.014,15.919,0,16.354
	c0.014,0.435-0.117,1.755-1.433,1.755C33.251,37.831,33.096,36.585,33.107,36.076z"/>
<path fill="#FFFFFF" stroke="#FFFFFF" stroke-miterlimit="10" d="M42.096,19.722c0.176,0.476,3.582,9.664,3.582,9.664
	c0.372,1.081,0.778,2.365,1.048,3.345h0.068c0.304-0.98,0.642-2.23,1.048-3.413l3.244-9.596c0,0,0.47-1.69,1.864-1.69
	c1.901,0,1.278,1.69,1.278,1.69l-4.46,11.657c-2.129,5.609-3.582,8.481-5.609,10.238c-1.453,1.284-2.906,1.791-3.65,1.926
	c0,0-1.735,0.19-1.735-1.387c0-0.958,0.991-1.114,0.991-1.114c0.743-0.236,1.724-0.71,2.602-1.453
	c0.811-0.642,1.825-1.791,2.501-3.311c0.135-0.304,0.237-0.541,0.237-0.71c0-0.169-0.068-0.405-0.203-0.777
	c0,0-5.868-14.605-6.048-15.07c-0.181-0.465-0.157-1.69,1.235-1.69C41.333,18.032,41.919,19.246,42.096,19.722z"/>
<path fill="#FFFFFF" stroke="#FFFFFF" stroke-miterlimit="10" d="M65.783,35.496c-0.052-0.352-0.17-1.48-0.17-1.48h-0.101
	c-0.912,1.284-2.669,2.433-5.001,2.433c-3.311,0-5.001-2.331-5.001-4.697c0-3.954,3.514-6.116,9.833-6.082v-0.338
	c0-1.352-0.372-3.784-3.717-3.784c-1.521,0-3.039,0.422-3.797,0.763c-0.654,0.294-1.642,0.691-1.936,0.094
	c-0.327-0.665,0.017-1.102,0.799-1.6c1.102-0.702,3.311-1.453,5.373-1.453c5.001,0,6.217,3.413,6.217,6.691v6.116
	c0,1.419,0.133,2.512,0.142,2.847c0.022,0.792,0.067,1.634-1.053,1.634C66.485,36.638,65.894,36.237,65.783,35.496z M65.411,27.73
	c-3.244-0.068-6.927,0.507-6.927,3.683c0,1.926,1.284,2.838,2.805,2.838c2.129,0,3.481-1.352,3.954-2.737
	c0.101-0.304,0.169-0.642,0.169-0.946L65.411,27.73L65.411,27.73z"/>
<linearGradient id="SVGID_6_" gradientUnits="userSpaceOnUse" x1="-5.2339" y1="-494.4889" x2="2.9014" y2="-494.4889" gradientTransform="matrix(1 0 0 -1 58.48 -449.98)">
	<stop  offset="0.0653" style="stop-color:#F4E8D9"/>
	<stop  offset="0.7044" style="stop-color:#6684FF"/>
	<stop  offset="0.9494" style="stop-color:#5573FF"/>
</linearGradient>
<linearGradient id="SVGID_7_" gradientUnits="userSpaceOnUse" x1="52.7461" y1="44.5089" x2="61.8814" y2="44.5089">
	<stop  offset="0.0887" style="stop-color:#6684FF"/>
	<stop  offset="0.3608" style="stop-color:#F4E8D9"/>
	<stop  offset="0.9494" style="stop-color:#5573FF"/>
</linearGradient>
<circle fill="url(#SVGID_6_)" stroke="url(#SVGID_7_)" stroke-miterlimit="10" cx="57.314" cy="44.509" r="4.068"/>
<linearGradient id="SVGID_8_" gradientUnits="userSpaceOnUse" x1="5.8844" y1="-494.4889" x2="14.0197" y2="-494.4889" gradientTransform="matrix(1 0 0 -1 58.48 -449.98)">
	<stop  offset="0.0653" style="stop-color:#F4E8D9"/>
	<stop  offset="0.7044" style="stop-color:#6684FF"/>
	<stop  offset="0.9494" style="stop-color:#5573FF"/>
</linearGradient>
<linearGradient id="SVGID_9_" gradientUnits="userSpaceOnUse" x1="63.8644" y1="44.5089" x2="72.9997" y2="44.5089">
	<stop  offset="0.0887" style="stop-color:#6684FF"/>
	<stop  offset="0.3608" style="stop-color:#F4E8D9"/>
	<stop  offset="0.9494" style="stop-color:#5573FF"/>
</linearGradient>
<circle fill="url(#SVGID_8_)" stroke="url(#SVGID_9_)" stroke-miterlimit="10" cx="68.432" cy="44.509" r="4.068"/>
<linearGradient id="SVGID_10_" gradientUnits="userSpaceOnUse" x1="16.3659" y1="-494.4889" x2="24.5013" y2="-494.4889" gradientTransform="matrix(1 0 0 -1 58.48 -449.98)">
	<stop  offset="0.0653" style="stop-color:#F4E8D9"/>
	<stop  offset="0.7044" style="stop-color:#6684FF"/>
	<stop  offset="0.9494" style="stop-color:#5573FF"/>
</linearGradient>
<linearGradient id="SVGID_11_" gradientUnits="userSpaceOnUse" x1="74.346" y1="44.5089" x2="83.4813" y2="44.5089">
	<stop  offset="0.0887" style="stop-color:#6684FF"/>
	<stop  offset="0.3608" style="stop-color:#F4E8D9"/>
	<stop  offset="0.9494" style="stop-color:#5573FF"/>
</linearGradient>
<circle fill="url(#SVGID_10_)" stroke="url(#SVGID_11_)" stroke-miterlimit="10" cx="78.914" cy="44.509" r="4.068"/>
</svg>
